<svg xmlns="http://www.w3.org/2000/svg" viewBox="0 0 322 366.5"><path fill="#fff" d="M5.3 7h70.8v21.5H31.6v26.5h41.6v21.3H31.6v46.6H5.3V7z"/><path fill="#fff" d="M104.3 122.8l-1.2-6.3h-0.4c-4.1 5-10.6 7.7-18 7.7 -12.8 0-20.4-9.3-20.4-19.3 0-16.4 14.7-24.2 37-24.1v-0.9c0-3.4-1.8-8.1-11.5-8.1 -6.4 0-13.3 2.2-17.4 4.8l-3.6-12.6c4.4-2.4 13-5.5 24.5-5.5 21 0 27.7 12.4 27.7 27.2v21.9c0 6.1 0.3 11.9 0.9 15.3H104.3zM102 93c-10.3-0.1-18.3 2.3-18.3 9.9 0 5 3.4 7.5 7.7 7.5 4.9 0 8.9-3.2 10.2-7.2 0.3-1 0.4-2.2 0.4-3.4V93z"/><path fill="#fff" d="M118.6 80.5c0-9.3-0.3-15.3-0.5-20.8H135l0.6 11.6h0.5c3.2-9.2 11-13 17-13 1.8 0 2.7 0 4.1 0.3v18.4c-1.4-0.3-3.1-0.5-5.3-0.5 -7.2 0-12.1 3.9-13.4 9.9 -0.3 1.3-0.4 2.8-0.4 4.4v32h-19.6V80.5z"/><path fill="#fff" d="M5.3 125.5h70.8V147H31.6v26.5h41.6v21.3H31.6v46.6H5.3V125.5z"/><path fill="#fff" d="M68.5 199.1c0-9.3-0.3-15.3-0.5-20.8h16.9l0.6 11.6H86c3.2-9.2 11-13 17-13 1.8 0 2.7 0 4.1 0.3v18.4c-1.4-0.3-3.1-0.5-5.3-0.5 -7.2 0-12.1 3.9-13.4 9.9 -0.3 1.3-0.4 2.8-0.4 4.4v32H68.5V199.1z"/><path fill="#fff" d="M160.8 209.1c0 23.1-16.4 33.6-33.3 33.6 -18.4 0-32.6-12.1-32.6-32.5s13.4-33.4 33.6-33.4C147.9 176.9 160.8 190.2 160.8 209.1zM115.1 209.8c0 10.8 4.5 18.9 12.9 18.9 7.6 0 12.5-7.6 12.5-18.9 0-9.4-3.6-18.9-12.5-18.9C118.6 190.8 115.1 200.5 115.1 209.8z"/><path fill="#fff" d="M155 198.4c0-7.9-0.3-14.6-0.5-20.1h16.5l0.9 8.5h0.4c2.7-4 8.3-9.9 19.1-9.9 8.1 0 14.6 4.1 17.3 10.7h0.3c2.3-3.2 5.2-5.8 8.1-7.6 3.5-2.1 7.3-3.1 12-3.1 12.1 0 21.3 8.5 21.3 27.3v37.1h-19.1V207c0-9.2-3-14.4-9.3-14.4 -4.5 0-7.7 3.1-9 6.8 -0.5 1.4-0.8 3.5-0.8 5v36.9H193V206c0-8-2.8-13.4-9-13.4 -5 0-8 3.9-9.2 7.1 -0.6 1.5-0.8 3.4-0.8 4.9v36.7H155V198.4z"/><path fill="#fff" d="M5.3 246.7c8.1-1.4 19.4-2.4 35.4-2.4 16.2 0 27.7 3.1 35.4 9.3 7.4 5.8 12.4 15.5 12.4 26.8s-3.8 21-10.7 27.5c-8.9 8.4-22.2 12.2-37.6 12.2 -3.4 0-6.5-0.2-8.9-0.5V361h-26V246.7zM31.2 299.3c2.2 0.5 5 0.7 8.8 0.7 13.9 0 22.5-7 22.5-18.9 0-10.7-7.4-17-20.5-17 -5.3 0-8.9 0.5-10.8 1V299.3z"/><path fill="#fff" d="M86.8 335.8c0.6 8.1 8.6 12 17.8 12 6.7 0 12.1-0.9 17.4-2.6l2.6 13.3c-6.4 2.6-14.3 3.9-22.8 3.9 -21.4 0-33.6-12.4-33.6-32.1 0-16 9.9-33.6 31.8-33.6 20.4 0 28.1 15.9 28.1 31.5 0 3.4-0.4 6.3-0.6 7.7H86.8zM109.9 322.4c0-4.8-2.1-12.8-11.1-12.8 -8.3 0-11.6 7.5-12.1 12.8H109.9z"/><path fill="#fff" d="M123.7 318.7c0-9.3-0.3-15.3-0.5-20.8h16.9l0.6 11.6h0.5c3.2-9.2 11-13 17-13 1.8 0 2.7 0 4.1 0.3v18.4c-1.4-0.3-3.1-0.5-5.3-0.5 -7.2 0-12.1 3.9-13.4 9.9 -0.3 1.3-0.4 2.8-0.4 4.4v32h-19.6V318.7z"/><path fill="#fff" d="M162.2 361v-48.6H154V298h8.3v-2.4c0-7.6 2.3-16 8-21.1 4.9-4.6 11.7-6.3 17.4-6.3 4.4 0 7.7 0.5 10.4 1.3l-0.8 15.1c-1.7-0.5-3.7-0.9-6.3-0.9 -6.4 0-9.2 5-9.2 11.2v3.2h12.6v14.4h-12.5V361H162.2z"/><path fill="#fff" d="M201.7 335.8c0.6 8.1 8.6 12 17.8 12 6.7 0 12.1-0.9 17.4-2.6l2.6 13.3c-6.4 2.6-14.3 3.9-22.8 3.9 -21.4 0-33.6-12.4-33.6-32.1 0-16 9.9-33.6 31.8-33.6 20.4 0 28.1 15.9 28.1 31.5 0 3.4-0.4 6.3-0.6 7.7H201.7zM224.7 322.4c0-4.8-2.1-12.8-11.1-12.8 -8.3 0-11.6 7.5-12.1 12.8H224.7z"/><path fill="#fff" d="M285.8 359.5c-3.5 1.5-10.1 2.8-17.5 2.8 -20.4 0-33.4-12.4-33.4-32.2 0-18.4 12.6-33.5 36.1-33.5 5.2 0 10.8 0.9 15 2.4l-3.1 14.6c-2.3-1-5.8-1.9-11-1.9 -10.3 0-17 7.3-16.9 17.7 0 11.6 7.7 17.7 17.3 17.7 4.6 0 8.3-0.8 11.2-1.9L285.8 359.5z"/><path fill="#fff" d="M304.5 279.9v18h14.1v14.4h-14.1v22.8c0 7.6 1.8 11.1 7.7 11.1 2.4 0 4.4-0.3 5.8-0.5l0.1 14.8c-2.6 1-7.2 1.7-12.8 1.7 -6.3 0-11.6-2.2-14.7-5.4 -3.6-3.7-5.4-9.8-5.4-18.7v-25.8H277V298h8.4v-13.7L304.5 279.9z"/><rect fill="#fff" x="5.3" y="244.4" width="28.1" height="8"/></svg>